<svg width="140" height="121" viewBox="0 0 124 121" fill="none" xmlns="http://www.w3.org/2000/svg">
<path d="M124 30.2522L102.829 19.9232L83.1814 29.5088V10.329L62 0L40.8288 10.329V29.5002L21.1815 19.9146L0 30.2522V50.9187L19.6473 60.5043L0 70.0899V90.7565L21.1712 101.085L40.8186 91.4998V110.671L61.9898 121L83.161 110.671V91.4998L102.808 101.085L124 90.7565V70.0899L104.353 60.5043L124 50.9187V30.2522ZM102.829 21.4099L121.719 30.6238L83.3042 49.4234L83.1814 30.9955L102.829 21.4099ZM81.6575 31.7388L81.7803 50.1754L62.7671 59.4844V21.0382L81.6575 11.8243V31.7388ZM42.3527 11.8243L61.233 21.0382V59.4844L42.3527 50.2445V11.8243ZM21.1712 21.4099L40.8186 30.9955V49.4839L2.29104 30.6238L21.1712 21.4099ZM1.52397 50.1754V31.7475L40.0617 50.6075L21.1815 59.761L1.52397 50.1754ZM1.52397 90.0131V71.5853L20.4042 80.7992V99.2271L1.52397 90.0131ZM2.29104 70.4616L21.5599 61.0661L41.5959 51.3509L60.4761 60.5908L21.1815 79.6755L2.29104 70.4616ZM61.233 119.142L42.3527 109.928V90.7565L61.233 81.5425V119.142ZM42.3527 89.2698L41.2072 89.8316L21.9383 99.2357V80.8078L61.233 61.7231V80.0559L42.3527 89.2698ZM62 19.9232L43.1198 10.7093L62 1.49532L80.8802 10.7093L62 19.9232ZM81.6473 109.928L62.7671 119.142V81.5425L81.6473 90.7565V109.928ZM102.062 99.2271L82.7928 89.823L81.6473 89.2612L62.7671 80.0472V61.7144L102.062 80.7992V99.2271ZM122.476 90.0131L103.596 99.2271V80.6436L122.476 71.5766V90.0131ZM121.699 70.4616L102.665 79.6064L63.5239 60.5994L82.5371 51.2904L101.305 60.5043L101.939 60.8155L102.317 61.0056L102.44 61.0661L121.699 70.4616ZM122.476 50.1754L102.829 59.761L84.0712 50.547L122.486 31.7475V50.1754H122.476Z" fill="white"/>
</svg>
